<svg id="Layer_1" data-name="Layer 1" xmlns="http://www.w3.org/2000/svg" viewBox="0 0 48 48"><defs><style>.cls-1{fill:#84b749;}.cls-2{fill:#c4455e;}.cls-3{fill:#f26674;}.cls-4{fill:#9fd367;}</style></defs><title>raspberry, berry, berries, leaves, fruit, food, organic, healthy</title><path class="cls-1" d="M14,23.61l-1.56-1.18c.69-.92,1.6-1.95,2.65-3.15C18.45,15.5,23,10.32,23,5.4V.5h2V5.4c0,5.66-4.86,11.16-8.41,15.18C15.54,21.75,14.66,22.75,14,23.61Z"/><path class="cls-1" d="M34,29.48C31.06,25.58,23,12.62,23,5.4V.5h2V5.4C25,12,32.84,24.69,35.55,28.31Z"/><path class="cls-2" d="M19.62,32.78c-1.27,3.49-7.06,8-11.58,6.33S2,30.31,3.23,26.81s6-5,10.5-3.35S20.89,29.28,19.62,32.78Z"/><circle class="cls-3" cx="5.61" cy="37.18" r="2.94"/><circle class="cls-3" cx="11.13" cy="39.19" r="2.94"/><circle class="cls-3" cx="8.96" cy="27.98" r="2.94"/><circle class="cls-3" cx="14.48" cy="29.99" r="2.94"/><circle class="cls-3" cx="4.52" cy="31.58" r="2.94"/><circle class="cls-3" cx="10.04" cy="33.58" r="2.94"/><circle class="cls-3" cx="15.57" cy="35.59" r="2.94"/><circle class="cls-3" cx="7.87" cy="22.37" r="2.94"/><circle class="cls-3" cx="13.39" cy="24.38" r="2.94"/><circle class="cls-3" cx="18.91" cy="26.39" r="2.94"/><circle class="cls-3" cx="20" cy="32" r="2.94"/><circle class="cls-3" cx="3.44" cy="25.97" r="2.94"/><path class="cls-4" d="M14,20.81h2a4.9,4.9,0,0,1,4.9,4.9v0a0,0,0,0,1,0,0h-2a4.9,4.9,0,0,1-4.9-4.9v0a0,0,0,0,1,0,0Z" transform="translate(25.9 51.08) rotate(-160)"/><path class="cls-4" d="M12.48,18.46h2a0,0,0,0,1,0,0v0a4.9,4.9,0,0,1-4.9,4.9h-2a0,0,0,0,1,0,0v0A4.9,4.9,0,0,1,12.48,18.46Z" transform="translate(7.82 -2.5) rotate(20)"/><path class="cls-2" d="M44.77,32.18c1.27,3.5-.28,10.65-4.81,12.3s-10.31-2.83-11.58-6.33,1.37-7.67,5.89-9.31S43.5,28.69,44.77,32.18Z"/><circle class="cls-3" cx="36.87" cy="44.56" r="2.94"/><circle class="cls-3" cx="42.39" cy="42.55" r="2.94"/><circle class="cls-3" cx="33.52" cy="35.36" r="2.94"/><circle class="cls-3" cx="39.04" cy="33.35" r="2.94"/><circle class="cls-3" cx="32.43" cy="40.97" r="2.94"/><circle class="cls-3" cx="37.96" cy="38.96" r="2.94"/><circle class="cls-3" cx="43.48" cy="36.95" r="2.94"/><circle class="cls-3" cx="29.09" cy="31.76" r="2.94"/><circle class="cls-3" cx="34.61" cy="29.76" r="2.94"/><circle class="cls-3" cx="40.13" cy="27.75" r="2.94"/><circle class="cls-3" cx="44.56" cy="31.34" r="2.94"/><circle class="cls-3" cx="28" cy="37.37" r="2.94"/><path class="cls-4" d="M33.56,23.83h2a4.9,4.9,0,0,1,4.9,4.9v0a0,0,0,0,1,0,0h-2a4.9,4.9,0,0,1-4.9-4.9v0a0,0,0,0,1,0,0Z" transform="translate(80.74 38.33) rotate(160)"/><path class="cls-4" d="M32,26.18h2a0,0,0,0,1,0,0v0a4.9,4.9,0,0,1-4.9,4.9h-2a0,0,0,0,1,0,0v0A4.9,4.9,0,0,1,32,26.18Z" transform="translate(-7.95 12.17) rotate(-20)"/><path class="cls-4" d="M28-.47h0a9.28,9.28,0,0,1,9.28,9.28v6.89a0,0,0,0,1,0,0h0A9.28,9.28,0,0,1,28,6.42V-.47A0,0,0,0,1,28-.47Z" transform="translate(4.17 25.3) rotate(-45)"/></svg>